<?xml version="1.0" standalone="no"?>
<!DOCTYPE svg PUBLIC "-//W3C//DTD SVG 20010904//EN"
 "http://www.w3.org/TR/2001/REC-SVG-20010904/DTD/svg10.dtd">
<svg version="1.0" xmlns="http://www.w3.org/2000/svg"
 width="225.000000pt" height="225.000000pt" viewBox="0 0 225.000000 225.000000"
 preserveAspectRatio="xMidYMid meet">
<metadata>
Created by potrace 1.14, written by Peter Selinger 2001-2017
</metadata>
<g transform="translate(0.000000,225.000000) scale(0.100000,-0.100000)"
fill="#000000" stroke="none">
<path d="M1021 2025 c-110 -31 -186 -104 -224 -216 l-15 -44 -337 -5 -337 -5
-19 -24 c-18 -22 -19 -43 -19 -328 l0 -304 26 -24 c15 -14 31 -25 35 -25 5 0
9 -178 9 -395 l0 -396 25 -24 24 -25 936 0 936 0 24 25 25 24 0 396 c0 217 4
395 9 395 4 0 20 11 35 25 l26 24 0 304 c0 285 -1 306 -19 328 l-19 24 -337 5
-337 5 -15 44 c-32 96 -107 177 -192 206 -67 24 -175 28 -240 10z m180 -136
c40 -14 85 -53 105 -91 8 -15 14 -29 14 -33 0 -3 -88 -5 -195 -5 -107 0 -195
2 -195 5 0 15 31 63 57 86 49 46 140 62 214 38z m839 -499 l0 -230 -112 -54
c-209 -101 -454 -170 -643 -183 l-95 -6 0 48 c0 58 -20 85 -63 85 -47 0 -67
-25 -67 -83 l0 -50 -95 6 c-189 13 -434 82 -642 183 l-113 54 0 230 0 230 915
0 915 0 0 -230z m-1456 -535 c122 -35 274 -64 381 -73 l90 -7 3 -40 c4 -66 10
-81 38 -94 21 -9 34 -9 56 0 29 12 36 27 40 94 l3 40 90 7 c178 15 391 67 578
142 l107 44 0 -309 0 -309 -845 0 -845 0 0 309 0 309 108 -44 c59 -23 147 -55
196 -69z"/>
</g>
</svg>
